<svg width="28" height="28" viewBox="0 0 28 28" fill="none" xmlns="http://www.w3.org/2000/svg">
<path fill-rule="evenodd" clip-rule="evenodd" d="M14.4364 9.36232C16.366 9.24538 17.8947 7.64351 17.8947 5.68458C17.8947 3.64964 16.245 2 14.2101 2C12.1752 2 10.5255 3.64964 10.5255 5.68458C10.5255 7.64351 12.0542 9.24538 13.9837 9.36232C13.355 9.4162 12.7421 9.69497 12.2769 10.1986L3.70382 19.4792C2.27226 21.0289 3.16733 23.4631 5.10418 23.8456L3.68278 25.7073L3.98549 26L5.59148 23.8966C5.60662 23.8968 5.62181 23.8969 5.63704 23.8969H7.55805L6.17584 25.7073L6.47854 26L8.08426 23.8969H10.0511L8.66889 25.7073L8.9716 26L10.5773 23.8969H12.5436L11.1614 25.7073L11.4641 26L13.0699 23.8969H15.0362L13.654 25.7073L13.9567 26L15.5624 23.8969H17.5292L16.147 25.7073L16.4497 26L18.0554 23.8969H20.0223L18.6401 25.7073L18.9428 26L20.5485 23.8969H22.5153L21.1331 25.7073L21.4358 26L23.0512 23.8842C25.1685 23.6816 26.2117 21.0979 24.7164 19.4792L16.1433 10.1986C15.678 9.69497 15.0651 9.4162 14.4364 9.36232Z" fill="black"/>
</svg>
