<svg width="28" height="28" viewBox="0 0 28 28" fill="none" xmlns="http://www.w3.org/2000/svg">
<path fill-rule="evenodd" clip-rule="evenodd" d="M15.0919 8.95638C16.8899 8.712 18.2756 7.17062 18.2756 5.30558C18.2756 3.27066 16.626 1.62103 14.591 1.62103C12.5561 1.62103 10.9065 3.27066 10.9065 5.30558C10.9065 7.13353 12.2376 8.65058 13.9834 8.94027C13.4588 9.04465 12.9601 9.30969 12.5668 9.73541L3.99385 19.0159C2.64993 20.4708 3.3565 22.705 5.05052 23.2896C4.70763 23.6642 4.49842 24.1631 4.49842 24.7109C4.49842 25.3997 4.82915 26.0112 5.34047 26.3953H3.44572V26.8164H25.553V26.3953H23.6577C24.1691 26.0112 24.4998 25.3997 24.4998 24.7109C24.4998 24.1633 24.2908 23.6646 23.9481 23.2901C25.6432 22.7063 26.3505 20.4712 25.0062 19.0159L16.4333 9.7354C16.0588 9.33009 15.5888 9.07041 15.0919 8.95638ZM20.7205 23.4336H16.1744C16.4452 23.7878 16.606 24.2306 16.606 24.7109C16.606 25.3997 16.2753 26.0112 15.764 26.3953H21.1309C20.6196 26.0112 20.2889 25.3997 20.2889 24.7109C20.2889 24.2306 20.4497 23.7878 20.7205 23.4336ZM12.8267 23.4336H8.27774C8.5485 23.7878 8.70933 24.2306 8.70933 24.7109C8.70933 25.3997 8.3786 26.0112 7.86728 26.3953H13.2372C12.7258 26.0112 12.3951 25.3997 12.3951 24.7109C12.3951 24.2306 12.556 23.7878 12.8267 23.4336Z" fill="black"/>
</svg>
