<svg width="195" height="42" viewBox="0 0 195 42" fill="none" xmlns="http://www.w3.org/2000/svg">
<path d="M189 1H189.017V39.0635L193.021 35.0576C193.357 34.7217 193.902 34.7218 194.238 35.0576C194.574 35.3935 194.574 35.9385 194.238 36.2744L188.765 41.748C188.429 42.0837 187.884 42.0838 187.548 41.748L182.074 36.2744C181.738 35.9386 181.738 35.3935 182.074 35.0576C182.41 34.7218 182.955 34.7217 183.291 35.0576L187.296 39.0635V3.43359H166.351V39.0635L170.355 35.0576C170.691 34.7217 171.236 34.7218 171.572 35.0576C171.908 35.3935 171.908 35.9386 171.572 36.2744L166.099 41.748C165.763 42.0838 165.218 42.0837 164.882 41.748L159.408 36.2744C159.072 35.9385 159.072 35.3935 159.408 35.0576C159.744 34.7218 160.289 34.7217 160.625 35.0576L164.63 39.0635V3.43359H143.684V39.0635L147.688 35.0576C148.024 34.7218 148.569 34.7218 148.905 35.0576C149.241 35.3935 149.241 35.9386 148.905 36.2744L143.432 41.748C143.096 42.0838 142.551 42.0836 142.215 41.748L136.741 36.2744C136.405 35.9385 136.405 35.3935 136.741 35.0576C137.077 34.7219 137.622 34.7218 137.958 35.0576L141.963 39.0635V3.43359H121.015V39.0635L125.019 35.0576C125.355 34.7217 125.9 34.7218 126.236 35.0576C126.572 35.3935 126.572 35.9385 126.236 36.2744L120.763 41.748C120.427 42.0837 119.882 42.0838 119.546 41.748L114.072 36.2744C113.736 35.9386 113.737 35.3935 114.072 35.0576C114.408 34.7218 114.953 34.7217 115.289 35.0576L119.294 39.0635V3.43359H98.3486V39.0635L102.353 35.0576C102.689 34.7217 103.234 34.7218 103.57 35.0576C103.906 35.3935 103.906 35.9386 103.57 36.2744L98.0966 41.748C97.7608 42.0838 97.2157 42.0837 96.8798 41.748L91.4062 36.2744C91.0703 35.9386 91.0704 35.3935 91.4062 35.0576C91.7421 34.7218 92.2871 34.7217 92.623 35.0576L96.6279 39.0635V3.43359H75.6826V39.0635L79.6875 35.0576C80.0233 34.7217 80.5683 34.7218 80.9042 35.0576C81.2398 35.3935 81.2401 35.9386 80.9042 36.2744L75.4306 41.748C75.0948 42.0839 74.5497 42.0836 74.2138 41.748L68.7402 36.2744C68.4043 35.9385 68.4043 35.3935 68.7402 35.0576C69.0761 34.7218 69.6211 34.7217 69.957 35.0576L73.9619 39.0635V3.43359H53.0126V39.0635L57.0175 35.0576C57.3534 34.7218 57.8984 34.7218 58.2343 35.0576C58.5702 35.3935 58.5702 35.9385 58.2343 36.2744L52.7607 41.748C52.4248 42.0836 51.8797 42.0838 51.5439 41.748L46.0703 36.2744C45.7345 35.9386 45.7347 35.3935 46.0703 35.0576C46.4062 34.7218 46.9512 34.7218 47.2871 35.0576L51.2919 39.0635V3.43359H30.3457V39.0635L34.3505 35.0576C34.6864 34.7217 35.2314 34.7218 35.5673 35.0576C35.9031 35.3935 35.9032 35.9385 35.5673 36.2744L30.0937 41.748C29.7578 42.0837 29.2128 42.0838 28.8769 41.748L23.4033 36.2744C23.0674 35.9386 23.0676 35.3935 23.4033 35.0576C23.7392 34.7218 24.2842 34.7217 24.6201 35.0576L28.625 39.0635V3.43359H7.68061V39.0635L11.6855 35.0576C12.0214 34.7217 12.5664 34.7218 12.9023 35.0576C13.2379 35.3935 13.2381 35.9386 12.9023 36.2744L7.42866 41.748C7.09284 42.0838 6.54777 42.0837 6.21186 41.748L0.738232 36.2744C0.402344 35.9385 0.402377 35.3935 0.738232 35.0576C1.07414 34.7218 1.61915 34.7217 1.95503 35.0576L5.95991 39.0635V1H5.99995V0.566406H189V1Z" fill="black"/>
</svg>
